<svg xmlns="http://www.w3.org/2000/svg" width="1200" height="334" viewBox="0 0 1200 334"><rect x="0" y="0" width="1200" height="334" fill="#FBF7EF" rx="20"/><text x="26" y="28" font-size="18" font-weight="700" fill="#1F2933">Low-Probability Top-k Mean Trends</text><text x="26" y="46" font-size="12" fill="#5B6770">Average candidate probability inside the configured low-probability window.</text><rect x="22.00" y="58.00" width="1156.00" height="270.00" fill="#FFFDFC" stroke="#D0C4B5" stroke-width="1.1" rx="16"/><text x="38.00" y="80.00" font-size="13" font-weight="700" fill="#1F2933">base_align_exp1_20260401_141352</text><line x1="86.00" y1="296.00" x2="1154.00" y2="296.00" stroke="#D8D0C4" stroke-width="1"/><text x="78.00" y="300.00" text-anchor="end" font-size="11" fill="#5B6770">-0.0090</text><line x1="86.00" y1="245.00" x2="1154.00" y2="245.00" stroke="#D8D0C4" stroke-width="1"/><text x="78.00" y="249.00" text-anchor="end" font-size="11" fill="#5B6770">0.0143</text><line x1="86.00" y1="194.00" x2="1154.00" y2="194.00" stroke="#D8D0C4" stroke-width="1"/><text x="78.00" y="198.00" text-anchor="end" font-size="11" fill="#5B6770">0.0377</text><line x1="86.00" y1="143.00" x2="1154.00" y2="143.00" stroke="#D8D0C4" stroke-width="1"/><text x="78.00" y="147.00" text-anchor="end" font-size="11" fill="#5B6770">0.0611</text><line x1="86.00" y1="92.00" x2="1154.00" y2="92.00" stroke="#D8D0C4" stroke-width="1"/><text x="78.00" y="96.00" text-anchor="end" font-size="11" fill="#5B6770">0.0845</text><line x1="86.00" y1="92.00" x2="86.00" y2="296.00" stroke="#D8D0C4" stroke-width="1"/><text x="86.00" y="314.00" text-anchor="middle" font-size="11" fill="#5B6770">6</text><line x1="299.60" y1="92.00" x2="299.60" y2="296.00" stroke="#D8D0C4" stroke-width="1"/><text x="299.60" y="314.00" text-anchor="middle" font-size="11" fill="#5B6770">40</text><line x1="513.20" y1="92.00" x2="513.20" y2="296.00" stroke="#D8D0C4" stroke-width="1"/><text x="513.20" y="314.00" text-anchor="middle" font-size="11" fill="#5B6770">73</text><line x1="726.80" y1="92.00" x2="726.80" y2="296.00" stroke="#D8D0C4" stroke-width="1"/><text x="726.80" y="314.00" text-anchor="middle" font-size="11" fill="#5B6770">107</text><line x1="940.40" y1="92.00" x2="940.40" y2="296.00" stroke="#D8D0C4" stroke-width="1"/><text x="940.40" y="314.00" text-anchor="middle" font-size="11" fill="#5B6770">140</text><line x1="1154.00" y1="92.00" x2="1154.00" y2="296.00" stroke="#D8D0C4" stroke-width="1"/><text x="1154.00" y="314.00" text-anchor="middle" font-size="11" fill="#5B6770">174</text><polyline fill="none" stroke="#125B50" stroke-width="3" points="86.00,138.97 124.14,276.23 200.43,228.60 238.57,237.95 276.71,269.44 314.86,234.51 391.14,276.26 429.29,246.72 467.43,276.18 505.57,276.17 543.71,276.26 581.86,276.24 620.00,253.58 658.14,276.25 734.43,266.07 810.71,177.93 925.14,169.50 963.29,276.09 1001.43,276.25 1039.57,111.74 1077.71,270.65 1115.86,263.85 1154.00,242.84" stroke-linecap="round" stroke-linejoin="round"/><circle cx="86.00" cy="138.97" r="3.4" fill="#125B50" stroke="#FBF7EF" stroke-width="1"/><circle cx="124.14" cy="276.23" r="3.4" fill="#125B50" stroke="#FBF7EF" stroke-width="1"/><circle cx="200.43" cy="228.60" r="3.4" fill="#125B50" stroke="#FBF7EF" stroke-width="1"/><circle cx="238.57" cy="237.95" r="3.4" fill="#125B50" stroke="#FBF7EF" stroke-width="1"/><circle cx="276.71" cy="269.44" r="3.4" fill="#125B50" stroke="#FBF7EF" stroke-width="1"/><circle cx="314.86" cy="234.51" r="3.4" fill="#125B50" stroke="#FBF7EF" stroke-width="1"/><circle cx="391.14" cy="276.26" r="3.4" fill="#125B50" stroke="#FBF7EF" stroke-width="1"/><circle cx="429.29" cy="246.72" r="3.4" fill="#125B50" stroke="#FBF7EF" stroke-width="1"/><circle cx="467.43" cy="276.18" r="3.4" fill="#125B50" stroke="#FBF7EF" stroke-width="1"/><circle cx="505.57" cy="276.17" r="3.4" fill="#125B50" stroke="#FBF7EF" stroke-width="1"/><circle cx="543.71" cy="276.26" r="3.4" fill="#125B50" stroke="#FBF7EF" stroke-width="1"/><circle cx="581.86" cy="276.24" r="3.4" fill="#125B50" stroke="#FBF7EF" stroke-width="1"/><circle cx="620.00" cy="253.58" r="3.4" fill="#125B50" stroke="#FBF7EF" stroke-width="1"/><circle cx="658.14" cy="276.25" r="3.4" fill="#125B50" stroke="#FBF7EF" stroke-width="1"/><circle cx="734.43" cy="266.07" r="3.4" fill="#125B50" stroke="#FBF7EF" stroke-width="1"/><circle cx="810.71" cy="177.93" r="3.4" fill="#125B50" stroke="#FBF7EF" stroke-width="1"/><circle cx="925.14" cy="169.50" r="3.4" fill="#125B50" stroke="#FBF7EF" stroke-width="1"/><circle cx="963.29" cy="276.09" r="3.4" fill="#125B50" stroke="#FBF7EF" stroke-width="1"/><circle cx="1001.43" cy="276.25" r="3.4" fill="#125B50" stroke="#FBF7EF" stroke-width="1"/><circle cx="1039.57" cy="111.74" r="3.4" fill="#125B50" stroke="#FBF7EF" stroke-width="1"/><circle cx="1077.71" cy="270.65" r="3.4" fill="#125B50" stroke="#FBF7EF" stroke-width="1"/><circle cx="1115.86" cy="263.85" r="3.4" fill="#125B50" stroke="#FBF7EF" stroke-width="1"/><circle cx="1154.00" cy="242.84" r="3.4" fill="#125B50" stroke="#FBF7EF" stroke-width="1"/><line x1="988" y1="82" x2="1004" y2="82" stroke="#125B50" stroke-width="3"/><text x="1010" y="86" font-size="12" fill="#1F2933">reasoning_sparks</text></svg>