<svg xmlns="http://www.w3.org/2000/svg" width="880" height="340" viewBox="0 0 880 340"><rect x="0" y="0" width="880" height="340" fill="#FBF7EF" rx="18"/><text x="72" y="26" font-size="18" font-weight="700" fill="#1F2933">Validation metric trajectory</text><text x="18" y="168.0" font-size="12" fill="#5B6770" transform="rotate(-90 18 168.0)">metric</text><line x1="72" y1="292.00" x2="856" y2="292.00" stroke="#D8D0C4" stroke-width="1"/><text x="62" y="296.00" font-size="11" text-anchor="end" fill="#5B6770">0.358</text><line x1="72" y1="242.40" x2="856" y2="242.40" stroke="#D8D0C4" stroke-width="1"/><text x="62" y="246.40" font-size="11" text-anchor="end" fill="#5B6770">0.405</text><line x1="72" y1="192.80" x2="856" y2="192.80" stroke="#D8D0C4" stroke-width="1"/><text x="62" y="196.80" font-size="11" text-anchor="end" fill="#5B6770">0.452</text><line x1="72" y1="143.20" x2="856" y2="143.20" stroke="#D8D0C4" stroke-width="1"/><text x="62" y="147.20" font-size="11" text-anchor="end" fill="#5B6770">0.499</text><line x1="72" y1="93.60" x2="856" y2="93.60" stroke="#D8D0C4" stroke-width="1"/><text x="62" y="97.60" font-size="11" text-anchor="end" fill="#5B6770">0.546</text><line x1="72" y1="44.00" x2="856" y2="44.00" stroke="#D8D0C4" stroke-width="1"/><text x="62" y="48.00" font-size="11" text-anchor="end" fill="#5B6770">0.593</text><line x1="72.00" y1="44" x2="72.00" y2="292" stroke="#D8D0C4" stroke-width="1"/><text x="72.00" y="324" font-size="11" text-anchor="middle" fill="#5B6770">0</text><line x1="228.80" y1="44" x2="228.80" y2="292" stroke="#D8D0C4" stroke-width="1"/><text x="228.80" y="324" font-size="11" text-anchor="middle" fill="#5B6770">36</text><line x1="385.60" y1="44" x2="385.60" y2="292" stroke="#D8D0C4" stroke-width="1"/><text x="385.60" y="324" font-size="11" text-anchor="middle" fill="#5B6770">72</text><line x1="542.40" y1="44" x2="542.40" y2="292" stroke="#D8D0C4" stroke-width="1"/><text x="542.40" y="324" font-size="11" text-anchor="middle" fill="#5B6770">108</text><line x1="699.20" y1="44" x2="699.20" y2="292" stroke="#D8D0C4" stroke-width="1"/><text x="699.20" y="324" font-size="11" text-anchor="middle" fill="#5B6770">144</text><line x1="856.00" y1="44" x2="856.00" y2="292" stroke="#D8D0C4" stroke-width="1"/><text x="856.00" y="324" font-size="11" text-anchor="middle" fill="#5B6770">180</text><rect x="72" y="44" width="784" height="248" fill="none" stroke="#D0C4B5" stroke-width="1.2" rx="14"/><polyline fill="none" stroke="#125B50" stroke-width="3" stroke-linecap="round" stroke-linejoin="round" points="72.00,274.90 98.13,268.28 124.27,230.71 150.40,205.31 176.53,142.60 202.67,122.75 228.80,107.94 254.93,104.50 281.07,98.15 307.20,83.06 333.33,92.59 359.47,86.24 385.60,86.50 411.73,78.57 437.87,76.45 464.00,81.74 490.13,80.95 516.27,62.96 542.40,68.51 568.53,74.60 594.67,72.48 620.80,69.04 646.93,62.96 673.07,68.51 699.20,69.04 725.33,70.36 751.47,69.04 777.60,70.89 803.73,67.98 829.87,61.10 856.00,62.96"/><circle cx="72.00" cy="274.90" r="3.6" fill="#125B50" stroke="#FBF7EF" stroke-width="1.2"/><circle cx="98.13" cy="268.28" r="3.6" fill="#125B50" stroke="#FBF7EF" stroke-width="1.2"/><circle cx="124.27" cy="230.71" r="3.6" fill="#125B50" stroke="#FBF7EF" stroke-width="1.2"/><circle cx="150.40" cy="205.31" r="3.6" fill="#125B50" stroke="#FBF7EF" stroke-width="1.2"/><circle cx="176.53" cy="142.60" r="3.6" fill="#125B50" stroke="#FBF7EF" stroke-width="1.2"/><circle cx="202.67" cy="122.75" r="3.6" fill="#125B50" stroke="#FBF7EF" stroke-width="1.2"/><circle cx="228.80" cy="107.94" r="3.6" fill="#125B50" stroke="#FBF7EF" stroke-width="1.2"/><circle cx="254.93" cy="104.50" r="3.6" fill="#125B50" stroke="#FBF7EF" stroke-width="1.2"/><circle cx="281.07" cy="98.15" r="3.6" fill="#125B50" stroke="#FBF7EF" stroke-width="1.2"/><circle cx="307.20" cy="83.06" r="3.6" fill="#125B50" stroke="#FBF7EF" stroke-width="1.2"/><circle cx="333.33" cy="92.59" r="3.6" fill="#125B50" stroke="#FBF7EF" stroke-width="1.2"/><circle cx="359.47" cy="86.24" r="3.6" fill="#125B50" stroke="#FBF7EF" stroke-width="1.2"/><circle cx="385.60" cy="86.50" r="3.6" fill="#125B50" stroke="#FBF7EF" stroke-width="1.2"/><circle cx="411.73" cy="78.57" r="3.6" fill="#125B50" stroke="#FBF7EF" stroke-width="1.2"/><circle cx="437.87" cy="76.45" r="3.6" fill="#125B50" stroke="#FBF7EF" stroke-width="1.2"/><circle cx="464.00" cy="81.74" r="3.6" fill="#125B50" stroke="#FBF7EF" stroke-width="1.2"/><circle cx="490.13" cy="80.95" r="3.6" fill="#125B50" stroke="#FBF7EF" stroke-width="1.2"/><circle cx="516.27" cy="62.96" r="3.6" fill="#125B50" stroke="#FBF7EF" stroke-width="1.2"/><circle cx="542.40" cy="68.51" r="3.6" fill="#125B50" stroke="#FBF7EF" stroke-width="1.2"/><circle cx="568.53" cy="74.60" r="3.6" fill="#125B50" stroke="#FBF7EF" stroke-width="1.2"/><circle cx="594.67" cy="72.48" r="3.6" fill="#125B50" stroke="#FBF7EF" stroke-width="1.2"/><circle cx="620.80" cy="69.04" r="3.6" fill="#125B50" stroke="#FBF7EF" stroke-width="1.2"/><circle cx="646.93" cy="62.96" r="3.6" fill="#125B50" stroke="#FBF7EF" stroke-width="1.2"/><circle cx="673.07" cy="68.51" r="3.6" fill="#125B50" stroke="#FBF7EF" stroke-width="1.2"/><circle cx="699.20" cy="69.04" r="3.6" fill="#125B50" stroke="#FBF7EF" stroke-width="1.2"/><circle cx="725.33" cy="70.36" r="3.6" fill="#125B50" stroke="#FBF7EF" stroke-width="1.2"/><circle cx="751.47" cy="69.04" r="3.6" fill="#125B50" stroke="#FBF7EF" stroke-width="1.2"/><circle cx="777.60" cy="70.89" r="3.6" fill="#125B50" stroke="#FBF7EF" stroke-width="1.2"/><circle cx="803.73" cy="67.98" r="3.6" fill="#125B50" stroke="#FBF7EF" stroke-width="1.2"/><circle cx="829.87" cy="61.10" r="3.6" fill="#125B50" stroke="#FBF7EF" stroke-width="1.2"/><circle cx="856.00" cy="62.96" r="3.6" fill="#125B50" stroke="#FBF7EF" stroke-width="1.2"/><line x1="676" y1="24" x2="692" y2="24" stroke="#125B50" stroke-width="3"/><text x="698" y="28" font-size="12" fill="#1F2933">base_d_weak_constraint_20260402_003007</text></svg>