<svg xmlns="http://www.w3.org/2000/svg" width="1200" height="334" viewBox="0 0 1200 334"><rect x="0" y="0" width="1200" height="334" fill="#FBF7EF" rx="20"/><text x="26" y="28" font-size="18" font-weight="700" fill="#1F2933">Low-Probability Top-k Mean Trends</text><text x="26" y="46" font-size="12" fill="#5B6770">Average candidate probability inside the configured low-probability window.</text><rect x="22.00" y="58.00" width="1156.00" height="270.00" fill="#FFFDFC" stroke="#D0C4B5" stroke-width="1.1" rx="16"/><text x="38.00" y="80.00" font-size="13" font-weight="700" fill="#1F2933">base_b_reward_shuffle_20260402_132309</text><line x1="86.00" y1="296.00" x2="1154.00" y2="296.00" stroke="#D8D0C4" stroke-width="1"/><text x="78.00" y="300.00" text-anchor="end" font-size="11" fill="#5B6770">-0.0102</text><line x1="86.00" y1="245.00" x2="1154.00" y2="245.00" stroke="#D8D0C4" stroke-width="1"/><text x="78.00" y="249.00" text-anchor="end" font-size="11" fill="#5B6770">0.0164</text><line x1="86.00" y1="194.00" x2="1154.00" y2="194.00" stroke="#D8D0C4" stroke-width="1"/><text x="78.00" y="198.00" text-anchor="end" font-size="11" fill="#5B6770">0.0431</text><line x1="86.00" y1="143.00" x2="1154.00" y2="143.00" stroke="#D8D0C4" stroke-width="1"/><text x="78.00" y="147.00" text-anchor="end" font-size="11" fill="#5B6770">0.0698</text><line x1="86.00" y1="92.00" x2="1154.00" y2="92.00" stroke="#D8D0C4" stroke-width="1"/><text x="78.00" y="96.00" text-anchor="end" font-size="11" fill="#5B6770">0.0965</text><line x1="86.00" y1="92.00" x2="86.00" y2="296.00" stroke="#D8D0C4" stroke-width="1"/><text x="86.00" y="314.00" text-anchor="middle" font-size="11" fill="#5B6770">6</text><line x1="299.60" y1="92.00" x2="299.60" y2="296.00" stroke="#D8D0C4" stroke-width="1"/><text x="299.60" y="314.00" text-anchor="middle" font-size="11" fill="#5B6770">41</text><line x1="513.20" y1="92.00" x2="513.20" y2="296.00" stroke="#D8D0C4" stroke-width="1"/><text x="513.20" y="314.00" text-anchor="middle" font-size="11" fill="#5B6770">76</text><line x1="726.80" y1="92.00" x2="726.80" y2="296.00" stroke="#D8D0C4" stroke-width="1"/><text x="726.80" y="314.00" text-anchor="middle" font-size="11" fill="#5B6770">110</text><line x1="940.40" y1="92.00" x2="940.40" y2="296.00" stroke="#D8D0C4" stroke-width="1"/><text x="940.40" y="314.00" text-anchor="middle" font-size="11" fill="#5B6770">145</text><line x1="1154.00" y1="92.00" x2="1154.00" y2="296.00" stroke="#D8D0C4" stroke-width="1"/><text x="1154.00" y="314.00" text-anchor="middle" font-size="11" fill="#5B6770">180</text><polyline fill="none" stroke="#125B50" stroke-width="3" points="86.00,197.82 196.48,167.69 233.31,206.05 306.97,263.74 343.79,223.50 380.62,275.72 454.28,242.06 491.10,260.70 527.93,269.21 564.76,115.10 601.59,143.28 638.41,212.20 675.24,208.15 712.07,239.44 748.90,256.95 785.72,179.40 822.55,276.26 859.38,123.32 969.86,230.14 1006.69,239.39 1080.34,261.65 1117.17,111.74 1154.00,266.81" stroke-linecap="round" stroke-linejoin="round"/><circle cx="86.00" cy="197.82" r="3.4" fill="#125B50" stroke="#FBF7EF" stroke-width="1"/><circle cx="196.48" cy="167.69" r="3.4" fill="#125B50" stroke="#FBF7EF" stroke-width="1"/><circle cx="233.31" cy="206.05" r="3.4" fill="#125B50" stroke="#FBF7EF" stroke-width="1"/><circle cx="306.97" cy="263.74" r="3.4" fill="#125B50" stroke="#FBF7EF" stroke-width="1"/><circle cx="343.79" cy="223.50" r="3.4" fill="#125B50" stroke="#FBF7EF" stroke-width="1"/><circle cx="380.62" cy="275.72" r="3.4" fill="#125B50" stroke="#FBF7EF" stroke-width="1"/><circle cx="454.28" cy="242.06" r="3.4" fill="#125B50" stroke="#FBF7EF" stroke-width="1"/><circle cx="491.10" cy="260.70" r="3.4" fill="#125B50" stroke="#FBF7EF" stroke-width="1"/><circle cx="527.93" cy="269.21" r="3.4" fill="#125B50" stroke="#FBF7EF" stroke-width="1"/><circle cx="564.76" cy="115.10" r="3.4" fill="#125B50" stroke="#FBF7EF" stroke-width="1"/><circle cx="601.59" cy="143.28" r="3.4" fill="#125B50" stroke="#FBF7EF" stroke-width="1"/><circle cx="638.41" cy="212.20" r="3.4" fill="#125B50" stroke="#FBF7EF" stroke-width="1"/><circle cx="675.24" cy="208.15" r="3.4" fill="#125B50" stroke="#FBF7EF" stroke-width="1"/><circle cx="712.07" cy="239.44" r="3.4" fill="#125B50" stroke="#FBF7EF" stroke-width="1"/><circle cx="748.90" cy="256.95" r="3.4" fill="#125B50" stroke="#FBF7EF" stroke-width="1"/><circle cx="785.72" cy="179.40" r="3.4" fill="#125B50" stroke="#FBF7EF" stroke-width="1"/><circle cx="822.55" cy="276.26" r="3.4" fill="#125B50" stroke="#FBF7EF" stroke-width="1"/><circle cx="859.38" cy="123.32" r="3.4" fill="#125B50" stroke="#FBF7EF" stroke-width="1"/><circle cx="969.86" cy="230.14" r="3.4" fill="#125B50" stroke="#FBF7EF" stroke-width="1"/><circle cx="1006.69" cy="239.39" r="3.4" fill="#125B50" stroke="#FBF7EF" stroke-width="1"/><circle cx="1080.34" cy="261.65" r="3.4" fill="#125B50" stroke="#FBF7EF" stroke-width="1"/><circle cx="1117.17" cy="111.74" r="3.4" fill="#125B50" stroke="#FBF7EF" stroke-width="1"/><circle cx="1154.00" cy="266.81" r="3.4" fill="#125B50" stroke="#FBF7EF" stroke-width="1"/><line x1="988" y1="82" x2="1004" y2="82" stroke="#125B50" stroke-width="3"/><text x="1010" y="86" font-size="12" fill="#1F2933">reasoning_sparks</text></svg>